<svg xmlns="http://www.w3.org/2000/svg" version="1.1" id="facebook-dark" y="315" width="27" height="27" xml:space="preserve" viewBox="-2 -2 27 27"><style>.bust0{fill-rule:evenodd;clip-rule:evenodd;fill:#fff}</style><g id="buNavigation"><g id="buFooter" transform="translate(-863 -348)"><g id="bu_x31_440-_x2F_-footer" transform="translate(0 219)"><g id="buGroup-15" transform="translate(861 126)"><g id="buicon_x2F_-pinterest-copy-3" transform="translate(0 1)"><g id="bufacebook" transform="translate(2.85 2.85)"><path id="buPath" class="bust0" d="M16 3.5H5.1c-.9 0-1.6.7-1.6 1.6V16c0 .9.7 1.6 1.6 1.6H11v-5.4H9.2V10H11V8.4c0-1.8 1.1-2.8 2.7-2.8.5 0 1.1 0 1.6.1v1.9h-1.1c-.9 0-1.1.4-1.1 1V10h2.1l-.2 2.1h-1.8v5.4H16c.9 0 1.6-.7 1.6-1.6V5.1c-.1-.9-.8-1.6-1.6-1.6z"/></g></g></g></g></g></g></svg>