<svg xmlns="http://www.w3.org/2000/svg" version="1.1" id="instagram-dark" x="27" y="315" width="27" height="27" xml:space="preserve" viewBox="-2 -2 27 27"><style>.ctst0{fill-rule:evenodd;clip-rule:evenodd;fill:#fff}</style><g id="ctNavigation"><g id="ctFooter" transform="translate(-907 -348)"><g id="ct_x31_440-_x2F_-footer" transform="translate(0 219)"><g id="ctGroup-15" transform="translate(861 126)"><g id="cticon_x2F_-pinterest-copy" transform="translate(43.7 1)"><g id="ctinstagram" transform="translate(2.85 2.85)"><path id="ctShape" class="ctst0" d="M11 5.3h2.8c1.9.1 2.8 1 2.9 2.9v5.6c-.1 1.9-1 2.8-2.9 2.9H8.2c-1.9-.1-2.8-1-2.9-2.9V11 8.2c.1-1.9 1-2.8 2.9-2.9H11zM11 4H8.1C5.6 4.2 4.2 5.6 4 8.1v5.8c.1 2.5 1.5 4 4.1 4.1h5.8c2.5-.1 4-1.5 4.1-4.1V11 8.1c-.1-2.5-1.5-4-4.1-4.1H11zm0 3.4C9 7.4 7.4 9 7.4 11S9 14.6 11 14.6s3.6-1.6 3.6-3.6S13 7.4 11 7.4zm0 5.9c-1.3 0-2.3-1-2.3-2.3 0-1.3 1-2.3 2.3-2.3s2.3 1 2.3 2.3c0 1.3-1 2.3-2.3 2.3zm3.7-6.9c-.5 0-.8.4-.8.8 0 .5.4.8.8.8.5 0 .8-.4.8-.8.1-.4-.3-.8-.8-.8z"/></g></g></g></g></g></g></svg>