<svg xmlns="http://www.w3.org/2000/svg" version="1.1" id="pinterest-dark" x="54" y="315" width="27" height="27" xml:space="preserve" viewBox="-2 -2 27 27"><style>.dkst0{fill-rule:evenodd;clip-rule:evenodd;fill:#fff}</style><g id="dkNavigation"><g id="dkFooter" transform="translate(-1032 -347)"><g id="dk_x31_440-_x2F_-footer" transform="translate(0 219)"><g id="dkGroup-15" transform="translate(861 126)"><g id="dkicon_x2F_-pinterest-copy-4" transform="translate(168.4)"><g id="dkpinterest" transform="translate(2.85 2.85)"><path id="dkPath" class="dkst0" d="M11 4c-3.9 0-7 3.1-7 7 0 3 1.8 5.5 4.4 6.5-.1-.6-.1-1.4 0-2 .2-.5.9-3.5.9-3.5s-.2-.4-.2-1c0-1 .6-1.7 1.3-1.7.6 0 .9.4.9 1s-.4 1.5-.6 2.3c-.2.7.3 1.3 1 1.3 1.2 0 2.2-1.3 2.2-3.2 0-1.7-1.2-2.8-2.9-2.8-2 0-3.2 1.5-3.2 3 0 .6.2 1.2.5 1.6.1.1.1.1 0 .2l-.2.8c0 .1-.1.2-.2.1-.9-.4-1.4-1.7-1.4-2.7 0-2.2 1.6-4.2 4.6-4.2 2.4 0 4.3 1.7 4.3 4 0 2.4-1.5 4.4-3.6 4.4-.7 0-1.4-.4-1.6-.8L9.8 16c-.2.6-.6 1.4-.9 1.8.7.1 1.4.2 2.1.2 3.9 0 7-3.1 7-7s-3.1-7-7-7z"/></g></g></g></g></g></g></svg>