<svg xmlns="http://www.w3.org/2000/svg" version="1.1" id="twitter-dark" x="108" y="315" width="27" height="27" xml:space="preserve" viewBox="-2 -2 27 27"><style>.emst0{fill-rule:evenodd;clip-rule:evenodd;fill:#fff}</style><g id="emNavigation"><g id="emFooter" transform="translate(-948 -351)"><g id="em_x31_440-_x2F_-footer" transform="translate(0 219)"><g id="emGroup-15" transform="translate(861 126)"><g id="emicon_x2F_-pinterest" transform="translate(87.4 6)"><path id="emPath" class="emst0" d="M19.4 6.2c-.6.3-1.3.5-2 .6.7-.4 1.3-1.1 1.5-2-.7.4-1.4.7-2.2.9-.6-.7-1.5-1.1-2.5-1.1-1.9 0-3.4 1.6-3.4 3.5 0 .3 0 .5.1.8C8 8.7 5.5 7.3 3.8 5.1c-.3.6-.5 1.2-.5 1.8 0 1.2.6 2.3 1.5 2.9-.6 0-1.1-.2-1.6-.4 0 1.7 1.2 3.1 2.8 3.5-.3.1-.6.1-.9.1-.2 0-.4 0-.7-.1.4 1.4 1.7 2.4 3.2 2.5C6.5 16.4 5 17 3.4 17h-.8c1.5 1 3.3 1.6 5.3 1.6 6.3 0 9.8-5.4 9.8-10.1V8c.7-.5 1.2-1.1 1.7-1.8z"/></g></g></g></g></g></svg>