<svg xmlns="http://www.w3.org/2000/svg" version="1.1" id="youtube-dark" x="81" y="315" width="27" height="27" xml:space="preserve" viewBox="-2 -2 27 27"><style>.erst0{fill-rule:evenodd;clip-rule:evenodd;fill:#fff}</style><g id="erNavigation"><g id="erFooter" transform="translate(-986 -350)"><g id="er_x31_440-_x2F_-footer" transform="translate(0 219)"><g id="erGroup-15" transform="translate(861 126)"><g id="ericon_x2F_-pinterest-copy-2" transform="translate(125.4 5)"><path id="erShape" class="erst0" d="M20.5 6.7c-.2-.9-.9-1.5-1.7-1.8-1.6-.4-7.8-.4-7.8-.4s-6.2 0-7.7.4c-.9.2-1.5.9-1.8 1.8-.4 1.6-.4 4.8-.4 4.8s0 3.3.4 4.8c.2.9.9 1.5 1.7 1.8 1.6.4 7.7.4 7.7.4s6.2 0 7.7-.4c.8-.2 1.5-.9 1.7-1.8.4-1.6.4-4.8.4-4.8s.2-3.2-.2-4.8zM9 14.5v-6l5.1 3-5.1 3z"/></g></g></g></g></g></svg>