<svg xmlns="http://www.w3.org/2000/svg" xmlns:xlink="http://www.w3.org/1999/xlink" width="44px" height="44px" viewBox="0 0 44 44" version="1.1">
    <title>tools</title>
    <g id="--•-PDP" stroke="none" stroke-width="1" fill="none" fill-rule="evenodd">
        <g id="PDP_Desktop_Grill" transform="translate(-565.000000, -7829.000000)" fill="#D52B1E" fill-rule="nonzero">
            <g id="Group-56" transform="translate(-38.000000, 5599.000000)">
                <g id="Group-24" transform="translate(0.000000, 2075.000000)">
                    <g id="value-props" transform="translate(220.000000, 70.000000)">
                        <g id="2" transform="translate(300.000000, 85.000000)">
                            <g id="tools" transform="translate(83.000000, 0.000000)">
                                <path d="M42.9321269,5.28692156 C42.6420789,5.21944714 42.3372601,5.30706318 42.127781,5.51855025 L38.5649587,9.10946571 L36.8568988,9.10946571 L34.9766228,7.16143516 L34.9766228,5.42959144 L38.4884182,1.86553139 C38.6962187,1.65471575 38.780816,1.35158431 38.7119968,1.06322349 C38.6435133,0.775198257 38.4313486,0.542898218 38.1507004,0.448232638 C37.2684713,0.150807979 36.3452864,7.10542736e-15 35.4063234,7.10542736e-15 C32.6072268,7.10542736e-15 30.064272,1.30525863 28.4293955,3.58092623 C26.8992584,5.71123839 26.4275949,8.32192834 27.1033662,10.8204965 L20.7730033,17.1506725 L10.2265389,6.58034935 L10.2265389,4.50576238 C10.2265389,4.20397373 10.0680868,3.92400514 9.80925932,3.7689147 L3.7326884,0.122609708 C3.39429916,-0.0804849572 2.96157724,-0.0271096378 2.68294321,0.251851847 L0.25244911,2.68193846 C-0.0261849241,2.96089994 -0.0795617327,3.3936091 0.123203244,3.73198835 L3.76894439,9.80837995 C3.92403941,10.0671998 4.20368049,10.2253116 4.50547805,10.2256472 L6.57945496,10.2263187 L17.1269264,20.7966418 L10.8207343,27.1026479 C8.32209239,26.4272322 5.70998258,26.8995532 3.57860042,28.4306522 C1.30420848,30.0644734 0,32.6066818 0,35.4056959 C0,36.3442954 0.150730897,37.2677888 0.448164333,38.1496561 C0.543168389,38.4319745 0.77782523,38.64514 1.06787314,38.7122788 C1.35825683,38.7797532 1.66273993,38.6921371 1.87255466,38.4806501 L5.4350414,34.8900704 L7.15250095,34.8900704 L9.10931732,36.8468289 L9.10931732,38.5642379 L5.51863157,42.1266194 C5.30713826,42.3364279 5.21951964,42.6409021 5.28699604,42.9312772 C5.35413676,43.2213165 5.56730857,43.4559664 5.84963528,43.5509678 C6.73152867,43.8483923 7.65504931,43.9991188 8.59367659,43.9991188 C11.3927732,43.9991188 13.9347209,42.6946131 15.568926,40.4202883 C17.1000701,38.288969 17.5724051,35.6772721 16.8969695,33.1787038 L21.9617298,28.114093 L23.1219214,29.3742872 L22.5894955,29.9063617 C22.2537919,30.2420554 22.2537919,30.7862148 22.5894955,31.1219085 C22.9251991,31.4572666 23.469039,31.4572666 23.8050783,31.1219085 L24.2871487,30.6398524 L35.1726737,42.4636559 C35.1807306,42.4723838 35.1891232,42.4807762 35.1975158,42.4891686 C37.2117374,44.5033308 40.4751122,44.5040021 42.4903409,42.4888328 C44.4998626,40.4783633 44.4998626,37.2070282 42.4903409,35.1965587 C42.4816126,35.1878306 42.4725486,35.1794383 42.4634846,35.171046 L30.6208686,24.3066551 L31.0975676,23.8299701 C31.4332712,23.4946121 31.4332712,22.9504526 31.0975676,22.6147589 C30.761864,22.2790652 30.2180243,22.2790652 29.8819849,22.6147589 L29.3532518,23.1438122 L28.0906705,21.9849975 L33.1799371,16.8958811 C33.9033784,17.0892406 34.6499832,17.1872632 35.4063234,17.1872632 C40.1451155,17.1872632 44,13.3321568 44,8.59384019 C44,7.65490494 43.8492691,6.73174723 43.5518357,5.84954419 C43.4568315,5.56722581 43.2221748,5.35406029 42.9321269,5.28692156 Z M7.54426708,8.7600086 C7.38312935,8.59853995 7.16458636,8.51629493 6.93630791,8.51629493 L4.992584,8.51562358 L1.94238101,3.42315014 L3.42384108,1.94173388 L8.50773646,4.9925182 L8.50773646,6.93618476 C8.50773646,7.16378504 8.59804071,7.38198599 8.75884276,7.54311896 L19.5577563,18.3662195 L18.3421736,19.5814306 L7.54426708,8.7600086 Z M29.4042787,25.5232091 L41.2871792,36.4241905 C42.6145512,37.7656225 42.6105228,39.9375607 41.2747582,41.2739574 C39.9359721,42.6127039 37.7686697,42.6167322 36.4245125,41.2857066 L25.5034028,29.4232984 L29.4042787,25.5232091 Z M28.1366619,24.3600304 L24.3381756,28.1577332 L23.177984,26.897539 L26.8740806,23.2012157 L28.1366619,24.3600304 Z M35.4063234,15.4685115 C34.6546831,15.4685115 33.9154637,15.3479974 33.2098148,15.1103263 C32.9006317,15.0065969 32.5588855,15.086492 32.3279214,15.3171136 C28.0195013,19.6254065 18.7359539,28.9083443 15.3174841,32.327049 C15.08652,32.5580062 15.0062868,32.8997424 15.1106906,33.209252 C15.8250679,35.3305005 15.4833216,37.5930759 14.1727347,39.4175712 C12.8658406,41.2366954 10.8321482,42.2803671 8.59367659,42.2803671 C8.34223452,42.2803671 8.09213536,42.2666036 7.84438614,42.2400838 L10.5739921,39.5317071 C10.7364727,39.3705741 10.8281198,39.1510304 10.8281198,38.9217516 L10.8281198,36.4906579 C10.8281198,36.2627219 10.7374798,36.0441852 10.576342,35.8830523 L8.11597034,33.4227532 C7.95483261,33.2616202 7.73628954,33.1709829 7.50834686,33.1709829 L5.07718131,33.1709829 C4.84789573,33.1709829 4.62834561,33.2626273 4.46687211,33.425103 L1.7587512,36.1546285 C1.73189492,35.9068865 1.71846677,35.6567947 1.71846677,35.4053601 C1.71846677,33.1666189 2.76183357,31.1333222 4.58134711,29.8264665 C6.40556045,28.5159183 8.66853851,28.1738465 10.7901853,28.8885384 C11.0993683,28.9929391 11.4411145,28.9127083 11.6720786,28.6817511 C11.7194129,28.634754 28.6704306,11.6839007 28.6825159,11.6718157 C28.91348,11.4408584 28.9933775,11.099458 28.8893094,10.7899484 C28.1745964,8.66869991 28.5156713,6.40679573 29.825251,4.58364332 C31.1331523,2.76284071 33.1671804,1.71883326 35.4059877,1.71883326 C35.6651509,1.71883326 35.9226356,1.73326811 36.1777703,1.76146638 L33.5048982,4.47420713 C33.3464461,4.63500444 33.2578203,4.85152685 33.2578203,5.07711302 L33.2578203,7.50820682 C33.2578203,7.73110743 33.3440962,7.9449443 33.4988556,8.10507017 L35.8732871,10.5653693 C36.0350963,10.7332161 36.2583392,10.8278818 36.4916532,10.8278818 L38.9228187,10.8278818 C39.1517685,10.8278818 39.3713187,10.7365731 39.5327921,10.5737616 L42.2409131,7.84457186 C42.2677694,8.09231377 42.2811975,8.34240564 42.2811975,8.59384019 C42.2811975,12.3844934 39.1970885,15.4685115 35.4063234,15.4685115 L35.4063234,15.4685115 Z" id="Combined-Shape"/>
                            </g>
                        </g>
                    </g>
                </g>
            </g>
        </g>
    </g>
</svg>