<svg xmlns="http://www.w3.org/2000/svg" xmlns:xlink="http://www.w3.org/1999/xlink" width="46px" height="50px" viewBox="0 0 46 50" version="1.1">
    <title>edit</title>
    <g id="--•-Account" stroke="none" stroke-width="1" fill="none" fill-rule="evenodd">
        <g id="1440---grill-registration-Success" transform="translate(-278.000000, -761.000000)" fill="#D52B1E" fill-rule="nonzero">
            <g id="Group-8" transform="translate(0.000000, 691.000000)">
                <g id="Group-24" transform="translate(179.000000, 70.000000)">
                    <g id="edit" transform="translate(99.000000, 0.000000)">
                        <path d="M22.3135011,49.5 C22.0679834,49.5 21.8280881,49.3932482 21.6500409,49.2002737 C21.4288875,48.9580292 21.33143,48.6090328 21.393278,48.2744069 L22.7183244,41.0173358 C22.755808,40.8161496 22.8420203,40.6334398 22.9750872,40.4917883 L37.5524712,24.5241788 C38.6469932,23.3252737 40.4330882,23.3252737 41.5276102,24.5241788 L44.1777029,27.4270073 C45.274099,28.6279653 45.274099,30.580292 44.1777029,31.78125 L29.6003189,47.7488595 C29.4710004,47.8925639 29.3041982,47.9890511 29.1205285,48.0301095 L22.4952968,49.4815237 C22.4353229,49.4938412 22.373475,49.5 22.3135011,49.5 L22.3135011,49.5 Z M24.5025452,41.7214872 L23.509229,47.1637774 L28.4776842,46.0757299 L42.8545307,30.3277828 C43.2199961,29.9274635 43.2199961,29.276688 42.8545307,28.8763686 L40.204438,25.9735401 C39.8389726,25.5732208 39.2448571,25.5732208 38.8793917,25.9735401 L24.5025452,41.7214872 Z" id="Shape"/>
                        <path d="M18.16875,42.75 L4.78125,42.75 C2.1439125,42.75 0,40.4379375 0,37.59375 L0,10.78125 C0,7.9370625 2.1439125,5.625 4.78125,5.625 L8.60625,5.625 C9.1341,5.625 9.5625,6.087 9.5625,6.65625 C9.5625,7.2255 9.1341,7.6875 8.60625,7.6875 L4.78125,7.6875 C3.1996125,7.6875 1.9125,9.0755625 1.9125,10.78125 L1.9125,37.59375 C1.9125,39.2994375 3.1996125,40.6875 4.78125,40.6875 L18.16875,40.6875 C18.6966,40.6875 19.125,41.1495 19.125,41.71875 C19.125,42.288 18.6966,42.75 18.16875,42.75 Z" id="Path"/>
                        <path d="M30.6,24.75 C30.1032,24.75 29.7,24.274 29.7,23.6875 L29.7,10.9375 C29.7,9.180125 28.4886,7.75 27,7.75 L23.4,7.75 C22.9032,7.75 22.5,7.274 22.5,6.6875 C22.5,6.101 22.9032,5.625 23.4,5.625 L27,5.625 C29.4822,5.625 31.5,8.007125 31.5,10.9375 L31.5,23.6875 C31.5,24.274 31.0968,24.75 30.6,24.75 Z" id="Path"/>
                        <path d="M21.9375,12.375 L10.6875,12.375 C9.136875,12.375 7.875,10.9869375 7.875,9.28125 L7.875,5.15625 C7.875,4.587 8.295,4.125 8.8125,4.125 L11.71875,4.125 C12.15375,1.77375 14.049375,1.02318154e-12 16.3125,1.02318154e-12 C18.575625,1.02318154e-12 20.47125,1.77375 20.90625,4.125 L23.8125,4.125 C24.33,4.125 24.75,4.587 24.75,5.15625 L24.75,9.28125 C24.75,10.9869375 23.488125,12.375 21.9375,12.375 Z M9.75,6.1875 L9.75,9.28125 C9.75,9.8484375 10.171875,10.3125 10.6875,10.3125 L21.9375,10.3125 C22.453125,10.3125 22.875,9.8484375 22.875,9.28125 L22.875,6.1875 L20.0625,6.1875 C19.545,6.1875 19.125,5.7255 19.125,5.15625 C19.125,3.4505625 17.863125,2.0625 16.3125,2.0625 C14.761875,2.0625 13.5,3.4505625 13.5,5.15625 C13.5,5.7255 13.08,6.1875 12.5625,6.1875 L9.75,6.1875 Z" id="Shape"/>
                        <path d="M24.9545455,19.125 L6.54545455,19.125 C6.03736364,19.125 5.625,18.621 5.625,18 C5.625,17.379 6.03736364,16.875 6.54545455,16.875 L24.9545455,16.875 C25.4626364,16.875 25.875,17.379 25.875,18 C25.875,18.621 25.4626364,19.125 24.9545455,19.125 Z" id="Path"/>
                        <path d="M24.9545455,24.75 L6.54545455,24.75 C6.03736364,24.75 5.625,24.246 5.625,23.625 C5.625,23.004 6.03736364,22.5 6.54545455,22.5 L24.9545455,22.5 C25.4626364,22.5 25.875,23.004 25.875,23.625 C25.875,24.246 25.4626364,24.75 24.9545455,24.75 Z" id="Path"/>
                        <path d="M24.9545455,31.5 L6.54545455,31.5 C6.03736364,31.5 5.625,30.996 5.625,30.375 C5.625,29.754 6.03736364,29.25 6.54545455,29.25 L24.9545455,29.25 C25.4626364,29.25 25.875,29.754 25.875,30.375 C25.875,30.996 25.4626364,31.5 24.9545455,31.5 Z" id="Path"/>
                    </g>
                </g>
            </g>
        </g>
    </g>
</svg>