<svg xmlns="http://www.w3.org/2000/svg" xmlns:xlink="http://www.w3.org/1999/xlink" width="36px" height="50px" viewBox="0 0 36 50" version="1.1">
    <title>award</title>
    <g id="--•-Account" stroke="none" stroke-width="1" fill="none" fill-rule="evenodd">
        <g id="1440---grill-registration-Success" transform="translate(-1181.000000, -762.000000)" fill="#D52B1E" fill-rule="nonzero" stroke="#D52B1E" stroke-width="0.7">
            <g id="Group-8" transform="translate(0.000000, 691.000000)">
                <g id="Group-24" transform="translate(179.000000, 70.000000)">
                    <g id="4" transform="translate(913.000000, 1.000000)">
                        <g id="award" transform="translate(89.000000, 0.500000)">
                            <g id="Group-9" transform="translate(0.000000, 0.545455)">
                                <g id="Group-5" transform="translate(0.545455, 0.000000)">
                                    <g id="waranty" transform="translate(0.854848, 0.725283)">
                                        <path d="M32.1909668,18.8721939 C32.5497945,18.8721939 32.8407897,19.5672991 32.8407897,19.1940885 L32.8407897,8.04878925 C32.8407897,7.70908923 32.6477747,7.40073782 32.3489827,7.26273187 L16.755832,0.0739011976 C16.5425453,-0.0246487411 16.2980712,-0.0245586589 16.0852176,0.0737210332 L0.491460513,7.26282196 C0.192841724,7.40064774 8.52651283e-14,7.70908923 8.52651283e-14,8.04878925 L8.52651283e-14,22.0826969 C8.52651283e-14,27.3280939 1.52289518,32.3764812 4.40391242,36.6821406 C7.28492967,40.9878001 11.3079234,44.2274266 16.0378301,46.0506906 C16.28447,46.1458174 16.5563197,46.1458174 16.8030462,46.0506005 C21.532953,44.2273365 25.55586,40.98771 28.4368773,36.6820506 C31.3178945,32.3763911 32.8407897,27.3280039 32.8407897,22.0826969 L32.8407897,18.7916334 C32.8407897,18.4184228 32.5498811,18.1160168 32.1910534,18.1160168 C31.8322258,18.1160168 31.5413172,18.4184228 31.5413172,18.7916334 L31.5413172,22.0826969 C31.5413172,32.1326287 25.4674959,41.2348055 16.4204815,44.7569299 C7.37251412,41.235346 1.2993859,32.1332592 1.2993859,22.0826969 L1.2993859,8.36840093 L16.4203082,1.39729896 L31.5412305,8.36840093 L31.5412305,19.1940885 C31.5412305,19.5672991 31.8321391,18.8721939 32.1909668,18.8721939 Z" id="Path"/>
                                        <path d="M20.2318924,22.2807199 L22.4040906,20.0219986 C22.8061474,19.603837 22.8061474,18.9236263 22.4040906,18.5055548 L20.6459043,16.6771562 C20.2438476,16.2590847 19.5896931,16.2591748 19.1875497,16.6771562 L14.3754298,21.6810426 L12.2454212,19.4661013 C11.8433644,19.0480298 11.1891233,19.0479397 10.7870666,19.4661013 L9.02870703,21.2944999 C8.62673688,21.7126615 8.62682351,22.3928722 9.02879366,22.8109438 L13.6462525,27.6123254 C14.0484826,28.030487 14.7024638,28.0302167 15.1046072,27.6123254 L20.2318924,22.2500019 C20.4856361,21.986061 20.4856361,21.5583507 20.2318924,21.2944999 C19.9781487,21.0307392 19.5667358,21.0307392 19.3130787,21.2944999 L14.3754298,26.4597236 L10.1373303,22.0527218 L11.5162439,20.6188833 L13.6462525,22.8338246 C14.0483959,23.2519863 14.7025504,23.2516259 15.1046072,22.8338246 L19.9166404,17.8299382 L21.2955539,19.2637767 L19.3129921,21.325308 C19.0592484,21.5891588 19.0592484,22.0168691 19.3130787,22.2807199 C19.5668224,22.5444806 19.9782354,22.5444806 20.2318924,22.2807199 Z" id="Path"/>
                                        <path d="M15.8831591,46.4053952 C16.2419868,46.4053952 16.5328953,46.1029892 16.5328953,45.7297786 L16.5328953,33.5169404 C21.981757,33.166971 26.3117727,28.4463929 26.3117727,22.6939231 C26.3117727,16.9414532 21.9818436,12.220695 16.5328953,11.8707256 L16.5328953,1.76652567 C16.5328953,1.39331507 16.2419868,1.09090909 15.8831591,1.09090909 C15.5243314,1.09090909 15.2334228,1.39331507 15.2334228,1.76652567 L15.2334228,11.871176 C13.7827783,11.9656722 12.3569104,12.3750058 11.0744176,13.0691793 C10.7561335,13.2414165 10.6323371,13.6493988 10.7980632,13.9803609 C10.9638758,14.3115031 11.3562299,14.4401405 11.6744274,14.2676331 C12.7899813,13.663812 13.9844564,13.3140228 15.2334228,13.2243009 C15.4273619,13.2005245 15.6439406,13.1886362 15.8831591,13.1886362 C16.1223775,13.1886362 16.3389563,13.2007046 16.5328953,13.2248414 C21.264708,13.5724686 25.0123002,17.6866133 25.0123002,22.693833 C25.0123002,27.7009626 21.264708,31.8151073 16.5328953,32.1627345 C16.5328953,32.1627345 16.1981344,32.1627345 15.8832457,32.1627345 C15.5489772,32.1627345 15.2334228,32.1627345 15.2334228,32.1627345 C10.5016102,31.8151073 6.75401799,27.7009626 6.75401799,22.693833 C6.75401799,20.1912591 7.6824478,17.8295738 9.36829684,16.0438741 C9.61970146,15.7775911 9.61588967,15.3498807 9.35980695,15.0885522 C9.10372423,14.8271337 8.69231122,14.8310973 8.44099324,15.0973803 C6.51517494,17.137292 5.45454545,19.835074 5.45454545,22.6939231 C5.45454545,28.4463929 9.78456121,33.1670611 15.2334228,33.5169404 L15.2334228,45.7296885 C15.2334228,46.1028991 15.5243314,46.4053952 15.8831591,46.4053952 Z" id="Path"/>
                                    </g>
                                </g>
                            </g>
                        </g>
                    </g>
                </g>
            </g>
        </g>
    </g>
</svg>