<svg xmlns="http://www.w3.org/2000/svg" xmlns:xlink="http://www.w3.org/1999/xlink" width="46px" height="44px" viewBox="0 0 46 44" version="1.1">
    <!-- Generator: Sketch 64 (93537) - https://sketch.com -->
    <title>piggy-bank</title>
    <desc>Created with Sketch.</desc>
    <g id="Homepage" stroke="none" stroke-width="1" fill="none" fill-rule="evenodd">
        <g id="1440---Homepage-C-modular" transform="translate(-848.000000, -3773.000000)" fill="#D52B1E" fill-rule="nonzero" stroke="#D52B1E" stroke-width="0.5">
            <g id="value-props" transform="translate(164.000000, 3705.000000)">
                <g id="3" transform="translate(601.000000, 68.000000)">
                    <g id="piggy-bank" transform="translate(84.000000, 0.500000)">
                        <path d="M19.8243203,0 C22.1588125,0 24.3536563,0.906586497 26.0044297,2.55273642 C26.6672656,3.21380157 27.2152891,3.96853333 27.6332031,4.79627877 C27.7922734,5.11121452 27.6651719,5.4952219 27.3492656,5.65376099 C27.0334453,5.81247148 26.6483594,5.6856402 26.4892891,5.37061875 C26.1327344,4.66473417 25.6648906,4.02046559 25.0987344,3.45589504 C23.689875,2.05089593 21.8166094,1.27713948 19.8242344,1.27713948 C17.8318594,1.27713948 15.9585938,2.05089593 14.5497344,3.45589504 C13.140875,4.86080846 12.3649453,6.72865602 12.3649453,8.71562213 C12.3649453,10.7025025 13.140875,12.5704358 14.5497344,13.9753492 C15.3387266,14.7621316 16.2624688,15.3336436 17.2471406,15.6935701 C18.9546328,15.4546475 20.6938359,15.4546475 22.4013281,15.6935701 C23.3859141,15.3336436 24.3097422,14.7621316 25.0987344,13.9753492 C26.41925,12.6584464 27.1925156,10.9094603 27.2759609,9.05061094 C27.2916875,8.69822568 27.5918672,8.42382451 27.9442969,8.44130666 C28.2976719,8.45698917 28.5712109,8.75538545 28.5553984,9.10777071 C28.5046094,10.238283 28.2343359,11.3334024 27.7714766,12.341711 C27.8195156,12.3518232 27.8686719,12.3609928 27.9163672,12.3713621 C28.3123672,12.4570589 28.7059609,12.5525252 29.0910469,12.6557041 C29.2080078,12.5686362 29.3343359,12.4926231 29.4696016,12.4309214 C35.1816094,9.82351042 36.2369219,10.3743695 36.5836797,10.5557039 C37.2275234,10.8919782 37.5535703,11.8462121 37.5803828,13.4731659 C37.5991172,14.6104482 37.4545703,15.9268369 37.1886797,17.0899996 C37.6042734,17.51497 37.9847188,17.9613647 38.3268359,18.4288408 C39.0775,19.4544601 39.6507031,20.5850581 40.0305469,21.7893553 C40.1043672,22.0233932 40.2862969,22.2071272 40.517125,22.2809121 L40.517125,22.2809121 L42.3194063,22.8566233 C43.3246172,23.1777292 44,24.1005981 44,25.1531262 L44,25.1531262 L44,28.1332326 C44,29.1858465 43.3246172,30.1087154 42.3194063,30.4299927 L42.3194063,30.4299927 L39.41575,31.3574892 C39.2545312,31.408993 39.1162578,31.5225412 39.0264531,31.6773097 C37.7805313,33.8245288 35.8522656,35.5965673 33.2940781,36.9455207 L33.2940781,36.9455207 L32.3885547,41.7266312 C32.2484766,42.4645664 31.6004219,43 30.8475234,43 L30.8475234,43 L27.8236406,43 C27.0708281,43 26.4227734,42.4646521 26.2826953,41.726974 L26.2826953,41.726974 L25.8161406,39.2687611 C24.5312031,39.4497528 23.21275,39.5414484 21.89275,39.5414484 C20.9306797,39.5414484 19.9790078,39.4922584 19.0598203,39.3951639 L19.0598203,39.3951639 L18.6172422,41.7268026 C18.47725,42.4644807 17.8291953,43 17.0762969,43 L17.0762969,43 L14.0524141,43 C13.2995156,43 12.6514609,42.4644807 12.5114687,41.7268026 L12.5114687,41.7268026 L11.6409219,37.2177795 C9.53132812,36.0726988 7.87642969,34.550038 6.72057031,32.6904173 C5.467,30.6733716 4.83132031,28.3025695 4.83132031,25.6435691 C4.83132031,25.2862991 4.8434375,24.9351993 4.86526563,24.5891556 L4.86526563,24.5891556 L4.69472266,24.5733124 L4.69472266,24.5733124 L4.51704688,24.554277 C4.39707813,24.8153094 4.24101563,25.0679436 4.04946094,25.3073805 C2.83619531,26.824471 1.57334375,27.1138691 0.7865,27.1138691 C0.736484375,27.1138691 0.688445312,27.1127551 0.64246875,27.1106127 C0.283507813,27.0942446 0,26.8020185 0,26.4437201 L0,26.4437201 C0,26.0773663 0.2915,25.7859114 0.65553125,25.7736568 C1.277375,25.7524897 2.2350625,25.527707 3.04794531,24.5110858 C3.09349219,24.4540974 3.13508594,24.3973661 3.17289844,24.3408919 C1.797125,24.0461806 0.968085938,23.5774191 0.6455625,22.9147257 C0.454523438,22.5220629 0.354921875,21.8849929 0.965851563,21.0799571 C1.38720313,20.5248132 1.99435156,20.2546969 2.63235156,20.3398795 C3.44196875,20.4476004 4.20509375,21.1122648 4.57660156,22.0331627 C4.74503906,22.4506775 4.82238281,22.8808755 4.81121094,23.3072171 C4.87265625,23.3135586 4.93435937,23.3188718 4.99597656,23.3244421 L4.99597656,23.3244421 L5.05487135,22.9565463 C5.70961902,19.179671 7.7942063,16.1988921 11.1808125,14.2452941 C11.4870078,14.0689301 11.8787109,14.1730517 12.0557422,14.4783038 C12.2327734,14.7836415 12.1281875,15.1742475 11.8220781,15.3508686 C10.0191953,16.3907994 8.61892969,17.7539784 7.66021094,19.4026993 C6.63282813,21.1694246 6.111875,23.269082 6.111875,25.6435691 C6.111875,30.3431818 8.27148438,33.9770691 12.3572969,36.1521397 C12.6280859,36.2963675 12.8162891,36.5504585 12.8739531,36.8492832 L12.8739531,36.8492832 L13.7694219,41.4873657 C13.7954609,41.624652 13.9143125,41.7228605 14.0524141,41.7228605 L14.0524141,41.7228605 L17.0762969,41.7228605 C17.2143984,41.7228605 17.33325,41.6247377 17.3589453,41.4894224 L17.3589453,41.4894224 L17.8484453,38.9107199 C17.9463281,38.3949965 18.4342813,38.0389263 18.9580703,38.0989997 C19.9053594,38.2087773 20.8926953,38.2643946 21.8928359,38.2643946 C23.2371563,38.2643946 24.5793281,38.1649006 25.8818828,37.9684835 C26.4224297,37.8868145 26.9246484,38.2415135 27.0260547,38.7754903 L27.0260547,38.7754903 L27.5411641,41.4894224 C27.5668594,41.624652 27.6857109,41.7228605 27.8238125,41.7228605 L27.8238125,41.7228605 L30.8476953,41.7228605 C30.9857969,41.7228605 31.1046484,41.6247377 31.1303438,41.4894224 L31.1303438,41.4894224 L32.0603594,36.5787384 C32.1181094,36.274172 32.3099219,36.0171673 32.5868125,35.8734537 C34.9836953,34.6307644 36.7772969,33.0038105 37.9181172,31.0377544 C38.1674219,30.6080706 38.5605859,30.289707 39.0251641,30.1411945 L39.0251641,30.1411945 L41.9289063,29.2136979 C42.4018203,29.0626145 42.7195313,28.6285602 42.7195313,28.133404 L42.7195313,28.133404 L42.7195313,25.1532976 C42.7195313,24.6581415 42.4018203,24.2240872 41.9289063,24.0730037 L41.9289063,24.0730037 L40.126625,23.4972926 C39.5000547,23.2970191 39.0074609,22.801863 38.8090313,22.1725914 C38.471125,21.1012099 37.9609141,20.094958 37.2925781,19.1819443 C37.12775,18.9567331 36.9528672,18.7367494 36.7683594,18.5219932 C36.3691797,19.5974881 35.8648984,20.3138277 35.2629922,20.6537869 C34.7308672,20.9543256 34.0063281,21.1248622 33.2204297,21.1248622 C32.1762031,21.1248622 31.0234375,20.8239808 30.0685859,20.1274371 C29.2584531,19.5363863 28.6870547,18.7355496 28.3704609,17.747037 C28.0182031,16.6472899 27.9979219,15.3402422 28.3102188,13.8624008 C28.3161484,13.8342066 28.3234531,13.8065265 28.3305859,13.7787607 C28.1037109,13.7226293 27.8747734,13.6691545 27.6448047,13.6193647 C27.4721563,13.5820009 27.2969297,13.5461796 27.1204141,13.5119866 C26.7975469,13.9995157 26.4256953,14.4582507 26.0044297,14.8783364 C25.52825,15.3531824 25.0103047,15.7615277 24.4622813,16.1036294 L24.4622813,16.1036294 C24.8599141,16.2066369 25.2550547,16.3225847 25.6458125,16.4528438 C25.9812266,16.5646782 26.1622109,16.9264901 26.0500625,17.2609647 C25.9604297,17.528253 25.7106953,17.6972471 25.4428281,17.6972471 C25.3755391,17.6972471 25.3071328,17.6866207 25.2397578,17.6641682 C21.7476016,16.4999771 17.9010391,16.4999771 14.4088828,17.6641682 C14.0735547,17.7759168 13.7106406,17.5954393 13.5985781,17.2609647 C13.4864297,16.9264044 13.6674141,16.5646782 14.0028281,16.4528438 C14.3935859,16.3225847 14.7887266,16.2067226 15.186875,16.1035437 L15.186875,16.1035437 L14.8612812,15.8904171 C14.4328834,15.5955296 14.0251547,15.2582132 13.6442109,14.8783364 C11.9934375,13.2321865 11.0843047,11.0434901 11.0843047,8.71553643 C11.0843047,6.38758273 11.9934375,4.19897204 13.6442109,2.55273642 C15.2949844,0.906586497 17.4898281,0 19.8243203,0 Z M35.762755,22.9333333 C36.0858751,22.9333333 36.3478261,23.2337503 36.3478261,23.6047212 C36.3478261,24.8151296 35.4895752,25.8 34.4347826,25.8 C33.37999,25.8 32.5217391,24.8152197 32.5217391,23.6047212 C32.5217391,23.2339306 32.7836902,22.9333333 33.1068102,22.9333333 C33.4299303,22.9333333 33.6918813,23.2338404 33.6918813,23.6047212 C33.6918813,24.0748098 34.0252093,24.4572243 34.4347826,24.4572243 C34.8444345,24.4572243 35.1776839,24.0748098 35.1776839,23.6047212 C35.1776839,23.2339306 35.4396349,22.9333333 35.762755,22.9333333 Z M2.39860156,21.6011651 C2.28920313,21.6011651 2.14439844,21.6434993 1.98721875,21.8505428 C1.88804688,21.9813161 1.73164063,22.2208387 1.79789844,22.3570966 C1.94734375,22.6646624 2.63604687,22.9286943 3.52249219,23.1118284 C3.50685156,22.8483964 3.43999219,22.6371538 3.38851562,22.5096369 C3.16997656,21.9679474 2.75747656,21.6448704 2.46305469,21.605707 C2.44328906,21.6030504 2.42171875,21.6011651 2.39860156,21.6011651 Z M35.7433828,11.6501378 C35.0567422,11.6501378 33.2084844,12.1287545 30.0026719,13.5921131 C29.7762266,13.6954635 29.6119141,13.8949656 29.5631875,14.1255757 L29.5631875,14.1255757 L29.5093924,14.3984179 C29.1143597,16.5581132 29.5666181,18.1789626 30.8245781,19.0965903 C32.1334063,20.0513384 33.8766484,19.9689837 34.6316953,19.5424707 C35.2959922,19.1672901 35.9571094,17.3693712 36.2035781,15.2675713 C36.4523672,13.146404 36.1818359,11.9002868 35.9755859,11.6810744 C35.9241953,11.6610213 35.8470234,11.6501378 35.7433828,11.6501378 Z M20.698365,4.77777778 C20.8581096,4.77777778 21.0179353,4.89314918 21.0179353,5.01897986 L21.0179353,5.01897986 L21.0179353,5.30225857 C21.7422192,5.32325697 22.7648282,5.54346066 22.7648282,6.05740234 C22.7648282,6.25668747 22.6157061,6.65517791 22.2961358,6.65517791 C22.0405443,6.65517791 21.7635455,6.31960281 21.0179353,6.26714675 L21.0179353,6.26714675 L21.0179353,8.39604855 C21.9446165,8.73162365 22.9565217,9.1931891 22.9565217,10.6194831 C22.9565217,11.909487 22.16834,12.622634 21.0179353,12.7800022 L21.0179353,12.7800022 L21.0179353,13.1365757 C21.0179353,13.2624064 20.8581907,13.3777778 20.698365,13.3777778 C20.517294,13.3777778 20.3894172,13.2624064 20.3894172,13.1365757 L20.3894172,13.1365757 L20.3894172,12.8114599 L20.1945553,12.8033063 C18.9814088,12.7206648 18.173913,12.0620807 18.173913,11.5739119 C18.173913,11.3221707 18.3975555,10.9760565 18.6638507,10.9760565 C19.01537,10.9760565 19.3029103,11.7102019 20.3894172,11.7941156 L20.3894172,11.7941156 L20.3894172,9.32947906 C19.4307871,8.99390396 18.3656066,8.61633208 18.3656066,7.27387203 C18.3656066,5.95241037 19.3775119,5.42800941 20.3894172,5.32309728 L20.3894172,5.32309728 L20.3894172,5.01897986 C20.3894172,4.89314918 20.5172129,4.77777778 20.698365,4.77777778 Z M20.9539564,9.56022187 L20.9539564,11.7731172 C21.5291182,11.668285 21.8912601,11.3327099 21.8912601,10.7347746 C21.8912601,10.0740837 21.475843,9.78042555 20.9539564,9.56022187 L20.9539564,9.56022187 Z M20.4533151,6.28814514 C19.8568269,6.36151976 19.4307871,6.62372024 19.4307871,7.16911958 C19.4307871,7.76689515 19.8887759,7.98709884 20.4533151,8.19684326 L20.4533151,8.19684326 Z" id="Combined-Shape"/>
                    </g>
                </g>
            </g>
        </g>
    </g>
</svg>