<?xml version="1.0" encoding="UTF-8"?>
<svg xmlns="http://www.w3.org/2000/svg" width="22" height="24" viewBox="-2 -2 22 24" id="account" x="142" y="312"><g id="aaSymbols" stroke="none" stroke-width="1" fill="none" fill-rule="evenodd"><g id="aaIcon/Navigational/Account" transform="translate(-4 -3)"><path id="aaRectangle" d="M0 0h26v26H0z"/><g id="aaacct-02" transform="translate(4 3)" fill="#000" fill-rule="nonzero"><path d="M1.78 19.107L0 19.027a8.71 8.71 0 017.88-8.65 5.22 5.22 0 111.62 0 8.22 8.22 0 00-1.62 0 5.5 5.5 0 001.62 0 8.64 8.64 0 017.83 8.7h-1.78a6.87 6.87 0 00-11.72-4.87 7 7 0 00-2 4.9h-.05zm6.91-17.27a3.38 3.38 0 10.02 6.76 3.38 3.38 0 00-.02-6.76z" id="aaIcon"/></g></g></g></svg>