<svg xmlns="http://www.w3.org/2000/svg" width="30" height="23" viewBox="-2 -2 30 23" id="truck" x="288" y="230"><g id="em--•-PDP" stroke="none" stroke-width="1" fill="none" fill-rule="evenodd"><g id="emPDP_Desktop_Grill" transform="translate(-840 -1065)" fill="#D52B1E" fill-rule="nonzero"><g id="emShipping" transform="translate(840 1064)"><path d="M16.736 1a.83.83 0 01.825.835l-.001.609h3.203c.261 0 .503.128.649.336l.056.093 2.172 4.81a.82.82 0 01.565.318l1.622 2.115a.843.843 0 01.173.512v5.426a.83.83 0 01-.825.835h-2.25a3.255 3.255 0 01-3.064 2.167 3.255 3.255 0 01-3.23-2.89h-5.095a3.255 3.255 0 01-3.23 2.89 3.255 3.255 0 01-3.23-2.89H2.958c-.437 0-.792-.323-.792-.722 0-.398.354-.722.792-.722h2.282a3.256 3.256 0 013.065-2.166c1.412 0 2.617.905 3.064 2.166h5.427a3.256 3.256 0 013.064-2.166c1.592 0 2.92 1.15 3.197 2.663h1.293v-4.305L23.15 9.348h-6.414a.83.83 0 01-.825-.835V2.67H2.991a.83.83 0 01-.824-.835A.83.83 0 012.99 1zm3.125 13.18a1.627 1.627 0 000 3.25c.896 0 1.625-.728 1.625-1.624 0-.897-.729-1.625-1.625-1.625zm-11.555 0a1.627 1.627 0 000 3.25c.896 0 1.625-.728 1.625-1.624 0-.897-.73-1.625-1.625-1.625zm-2.572-3.069c.423 0 .766.323.766.722 0 .4-.343.723-.766.723H2.21c-.423 0-.766-.324-.766-.723 0-.399.343-.722.766-.722zM7.844 7.5c.454 0 .823.323.823.722 0 .4-.369.722-.823.722H.823C.368 8.944 0 8.621 0 8.222 0 7.823.368 7.5.823 7.5zm12.433-3.497l-2.717-.001v3.676h4.251l-1.534-3.675zM9.288 4.61c.455 0 .823.323.823.722 0 .4-.368.723-.823.723h-7.02c-.455 0-.824-.324-.824-.723 0-.399.369-.722.823-.722z" id="emCombined-Shape"/></g></g></g></svg>