

<svg xmlns="http://www.w3.org/2000/svg" width="45" height="45" viewBox="-2 -2 45 45" id="testimonial" x="243"><g id="ej--•-PDP" stroke="none" stroke-width="1" fill="none" fill-rule="evenodd"><g id="ejPDP_Grill" transform="translate(-140 -5580)" fill="#fff" fill-rule="nonzero"><g id="ejGroup-49" transform="translate(-24 5537)"><g id="ejGroup-33" transform="translate(32 43)"><g id="ejtestimonial" transform="translate(132)"><path d="M26.741 6.23c7.84 0 14.219 6.378 14.219 14.218 0 3.283-1.146 6.486-3.226 9.018a14.276 14.276 0 01-7.425 4.748v5.946a.8.8 0 01-1.365.565l-6.06-6.059H14.22C6.379 34.666 0 28.288 0 20.448c0-2.416.617-4.803 1.785-6.902a.8.8 0 111.398.778A12.624 12.624 0 001.6 20.448c0 6.958 5.66 12.618 12.619 12.618h8.997a.8.8 0 01.566.235l4.927 4.927V33.58a.8.8 0 01.636-.783c5.803-1.217 10.015-6.41 10.015-12.35 0-6.957-5.66-12.618-12.619-12.618h-1.008a.8.8 0 110-1.6zM30.325 27a.8.8 0 010 1.6H19.83a.8.8 0 010-1.6zm-14.996 0a.8.8 0 010 1.6h-.013a.8.8 0 010-1.6zm14.996-4.267a.8.8 0 110 1.6h-19.69a.8.8 0 010-1.6zm0-4.267a.8.8 0 110 1.6h-19.69a.8.8 0 110-1.6zm0-4.267a.8.8 0 110 1.6h-19.69a.8.8 0 110-1.6zM9.863.002a.801.801 0 01.845.798v2.394a.8.8 0 01-.727.797c-.413.038-1.31.119-1.528 1.74h1.455c.695 0 1.26.565 1.26 1.26v3.868c0 .695-.564 1.26-1.26 1.26H5.58c-.695 0-1.26-.565-1.26-1.26V6.696C4.32 1.42 7.334.144 9.863.002zm8.179 0a.801.801 0 01.845.798v2.394a.8.8 0 01-.728.797c-.412.038-1.309.119-1.527 1.74h1.455c.695 0 1.26.565 1.26 1.26v3.868c0 .695-.565 1.26-1.26 1.26H13.76c-.695 0-1.26-.565-1.26-1.26V6.696c0-5.275 3.014-6.552 5.543-6.694zM9.108 1.697c-1.551.29-3.188 1.318-3.188 4.999v3.823h3.649V7.331H7.604a.8.8 0 01-.8-.8c0-2.704 1.233-3.667 2.304-3.993zm8.179 0c-1.551.29-3.188 1.318-3.188 4.999v3.823h3.649V7.331h-1.965a.8.8 0 01-.8-.8c0-2.704 1.233-3.667 2.304-3.993zm4.953 4.532c.21 0 .417.086.566.235a.806.806 0 01.234.565c0 .21-.086.417-.234.566a.806.806 0 01-.566.234.806.806 0 01-.566-.234.806.806 0 01-.234-.566c0-.21.086-.417.234-.565a.806.806 0 01.566-.235z" id="ejCombined-Shape"/></g></g></g></g></g></svg>