<svg xmlns="http://www.w3.org/2000/svg" width="23" height="28" viewBox="-2 -2 23 28" id="location-red" y="287"><g id="cy--•-PDP" stroke="none" stroke-width="1" fill="none" fill-rule="evenodd"><g id="cyPDP_Desktop_Grill" transform="translate(-845 -1000)" fill-rule="nonzero" stroke="#D52B1E" stroke-width="1.5"><g id="cyGroup-64" transform="translate(846.434 996)"><path d="M8.134 5C3.649 5 0 8.714 0 13.28c0 2.554 1.292 5.654 3.84 9.213a40.598 40.598 0 003.778 4.54.725.725 0 001.02.012c.078-.074 1.92-1.857 3.788-4.426 2.55-3.507 3.842-6.649 3.842-9.339 0-4.566-3.65-8.28-8.134-8.28zm0 11.855a3.981 3.981 0 01-3.977-3.977 3.981 3.981 0 013.977-3.976 3.981 3.981 0 013.977 3.976 3.981 3.981 0 01-3.977 3.977z" id="cyShape"/></g></g></g></svg>